<?xml version="1.0" standalone="no"?>
<!DOCTYPE svg PUBLIC "-//W3C//DTD SVG 20010904//EN"
 "http://www.w3.org/TR/2001/REC-SVG-20010904/DTD/svg10.dtd">
<svg version="1.0" xmlns="http://www.w3.org/2000/svg"
 width="498.000000pt" height="307.000000pt" viewBox="0 0 498.000000 307.000000"
 preserveAspectRatio="xMidYMid meet">

<g transform="translate(0.000000,307.000000) scale(0.100000,-0.100000)"
fill="#000000" stroke="none">
<path d="M1766 2089 c-85 -67 -69 -373 21 -395 16 -4 34 -2 47 7 111 71 205
99 330 99 l86 0 0 -78 0 -78 -53 -17 c-259 -82 -341 -411 -150 -602 218 -219
594 -83 620 224 10 119 -31 218 -126 304 -44 39 -138 87 -171 87 -6 0 -10 36
-10 81 l0 82 108 -6 c123 -6 183 -22 266 -72 32 -19 67 -35 77 -35 101 0 122
333 26 404 -27 20 -29 20 -55 3 -110 -69 -233 -107 -354 -107 l-68 0 0 60 0
60 -55 0 -55 0 0 -60 0 -60 -65 0 c-125 0 -268 42 -344 101 -30 24 -42 24 -75
-2z m69 -51 c7 -18 15 -44 17 -58 2 -21 -1 -25 -27 -28 -40 -5 -55 -19 -55
-53 0 -36 24 -59 61 -59 27 0 30 -3 24 -22 -4 -13 -9 -32 -12 -43 -6 -23 -32
-55 -44 -55 -14 0 -39 58 -50 117 -8 40 -7 75 1 122 18 108 57 144 85 79z
m493 -180 c-3 -205 -4 -213 -23 -213 -19 0 -20 8 -23 213 l-2 212 25 0 25 0
-2 -212z m506 190 c47 -72 35 -286 -18 -320 -15 -10 -43 18 -51 50 -3 15 -8
35 -11 45 -4 13 1 17 22 17 36 0 64 26 64 60 0 33 -15 47 -55 52 -27 3 -30 6
-27 32 4 40 29 86 47 86 8 0 21 -10 29 -22z m-864 -61 c30 -10 79 -21 108 -24
l52 -6 0 -58 0 -58 -37 -6 c-32 -5 -137 -32 -194 -51 -15 -5 -15 0 -7 48 10
51 5 138 -9 174 -5 14 -3 16 13 9 10 -4 44 -17 74 -28z m755 16 c-13 -34 -17
-139 -7 -181 9 -39 8 -43 -6 -38 -59 19 -163 46 -194 51 l-38 6 0 59 0 60 31
0 c39 0 145 27 179 45 34 19 43 18 35 -2z m-477 -105 l3 -58 -41 0 -40 0 0 61
0 60 38 -3 37 -3 3 -57z m194 32 c3 -16 3 -43 0 -60 -4 -27 -8 -30 -43 -30
l-39 0 0 53 c0 30 3 57 7 60 3 4 21 7 39 7 28 0 32 -4 36 -30z m-582 -30 c0
-14 -7 -20 -23 -20 -30 0 -40 10 -26 27 18 20 49 16 49 -7z m943 6 c7 -19 -1
-26 -30 -26 -16 0 -23 6 -23 20 0 14 7 20 24 20 13 0 26 -6 29 -14z m-596
-346 c-20 -21 -45 -57 -57 -80 -23 -45 -31 -47 -78 -21 l-33 17 38 37 c38 38
124 87 151 87 9 0 0 -15 -21 -40z m230 21 c23 -11 63 -39 88 -62 l46 -43 -33
-17 c-47 -26 -55 -24 -78 21 -12 23 -37 59 -57 80 -39 44 -30 50 34 21z m-149
-83 l-3 -83 -50 3 c-62 5 -71 12 -52 48 20 37 86 114 98 114 6 0 9 -34 7 -82z
m87 40 c45 -53 69 -98 58 -108 -4 -5 -30 -10 -58 -12 l-50 -3 -3 83 c-2 48 1
82 7 82 5 0 26 -19 46 -42z m-307 -115 l42 -18 -6 -45 c-4 -25 -8 -48 -11 -52
-2 -5 -29 -8 -59 -8 -50 0 -54 2 -54 23 0 28 29 117 38 117 4 0 26 -8 50 -17z
m539 -14 c7 -14 15 -44 19 -67 l7 -42 -62 0 c-58 0 -61 1 -61 24 0 13 -3 36
-6 52 -5 26 -1 31 33 45 47 21 55 19 70 -12z m-349 -29 c31 0 32 -2 32 -40 l0
-40 -81 0 -81 0 7 37 c10 53 13 56 54 49 20 -3 51 -6 69 -6z m205 3 c2 -5 7
-25 11 -45 l7 -38 -81 0 -80 0 0 39 0 40 48 4 c26 2 57 4 69 5 12 1 24 -1 26
-5z m-370 -130 c3 -5 7 -28 11 -53 l6 -45 -42 -17 c-24 -10 -46 -18 -50 -18
-9 0 -38 89 -38 117 0 21 4 23 54 23 30 0 57 -3 59 -7z m197 -32 l0 -38 -67
-6 c-37 -4 -71 -3 -74 1 -4 4 -11 24 -14 45 l-7 37 81 0 81 0 0 -39z m184 2
c-3 -21 -10 -42 -14 -46 -4 -4 -36 -4 -71 0 l-64 8 -3 38 -3 37 81 0 81 0 -7
-37z m156 19 c0 -27 -30 -122 -38 -122 -4 0 -26 8 -50 18 -40 16 -43 19 -38
46 3 16 6 39 6 52 0 23 4 24 60 24 51 0 60 -3 60 -18z m-340 -183 c0 -43 -4
-79 -9 -79 -13 0 -77 74 -96 111 -9 17 -13 35 -8 40 8 8 92 17 106 11 4 -2 7
-39 7 -83z m143 71 c5 -4 2 -21 -6 -36 -19 -37 -86 -114 -98 -114 -9 0 -13
152 -5 161 7 7 100 -2 109 -11z m-283 -50 c12 -23 37 -59 57 -80 20 -23 29
-40 22 -40 -29 0 -116 49 -153 85 l-38 38 33 18 c48 26 56 24 79 -21z m398 15
l24 -12 -32 -31 c-38 -38 -103 -78 -145 -88 l-30 -7 37 41 c20 23 47 60 58 82
22 44 31 45 88 15z"/>
<path d="M670 1395 l0 -255 45 0 45 0 0 105 0 105 163 -2 162 -3 3 -102 3
-103 44 0 45 0 0 255 0 255 -45 0 -44 0 -3 -102 -3 -103 -162 -3 -163 -2 0
105 0 105 -45 0 -45 0 0 -255z"/>
<path d="M1290 1395 l0 -255 45 0 45 0 0 255 0 255 -45 0 -45 0 0 -255z"/>
<path d="M1590 1545 c-90 -91 -109 -105 -137 -105 -32 0 -33 -1 -33 -45 0 -44
1 -45 33 -45 28 0 47 -14 137 -105 l105 -105 65 0 65 1 -134 127 -133 127 133
127 134 127 -65 1 -65 0 -105 -105z"/>
<path d="M2905 1640 c-11 -4 -31 -20 -45 -35 -24 -26 -25 -31 -28 -205 l-3
-179 35 -38 34 -38 203 -3 c184 -3 201 -2 195 13 -3 9 -6 30 -6 46 l0 29 -169
0 c-93 0 -176 3 -185 6 -14 5 -16 28 -16 153 0 101 4 151 12 159 8 8 64 12
185 12 l173 0 0 45 0 45 -182 -1 c-101 0 -192 -4 -203 -9z"/>
<path d="M3382 1405 c3 -205 5 -247 18 -255 8 -5 113 -10 233 -10 l217 0 0 45
0 45 -187 2 -188 3 -3 208 -2 207 -46 0 -45 0 3 -245z"/>
<path d="M3980 1632 c-103 -54 -100 -216 4 -266 26 -12 65 -16 168 -16 118 0
137 -2 151 -18 22 -24 21 -65 -1 -85 -16 -15 -46 -17 -205 -17 l-187 0 0 -45
0 -45 192 0 c171 0 196 2 233 20 53 26 75 64 75 133 0 46 -5 61 -27 88 -42 50
-76 59 -221 59 -146 0 -165 7 -165 60 0 55 16 60 205 60 l168 0 0 45 0 45
-178 0 c-152 0 -182 -3 -212 -18z"/>
</g>
</svg>
